<?xml version="1.0" encoding="UTF-8"?>
<svg width="26px" height="32px" viewBox="0 0 26 32" version="1.1" xmlns="http://www.w3.org/2000/svg" xmlns:xlink="http://www.w3.org/1999/xlink">
    <!-- Generator: Sketch 51.3 (57544) - http://www.bohemiancoding.com/sketch -->
    <title>2a copy</title>
    <desc>Created with Sketch.</desc>
    <defs></defs>
    <g id="Desktop" stroke="none" stroke-width="1" fill="none" fill-rule="evenodd">
        <g id="menu-page---text" transform="translate(-519.000000, -140.000000)" fill="#0F3F5A">
            <g id="2b" transform="translate(502.000000, 122.000000)">
                <path d="M36.5877,47.7493 L36.5862,47.7656 L23.5918,47.7656 L21.0739,27.5299 L39.1041,27.5299 L36.5877,47.7493 Z M21.185,21.0558 C21.1986,20.9785 21.2246,20.9275 21.2439,20.9 L38.8827,20.9 C38.9002,20.9249 38.9233,20.9694 38.9377,21.0358 L39.0702,22.0227 L21.0801,22.0227 L21.185,21.0558 Z M40.1927,25.5298 C40.1927,25.5298 40.1923,25.5299 40.1915,25.5299 L19.9,25.5299 L19.9,24.0227 L40.1915,24.0227 L40.1927,25.5298 Z M41.119,22.2525 L40.916,20.7404 L40.9086,20.694 C40.7159,19.6378 39.9105,18.9 38.9499,18.9 L21.1767,18.9 C20.1955,18.9 19.366,19.6891 19.2044,20.7764 L19.0479,22.2161 C18.3707,22.5368 17.9,23.225 17.9,24.0227 L17.9,25.5299 C17.9,26.3259 18.3686,27.0127 19.0433,27.3344 L21.6001,47.9472 C21.6944,48.9846 22.5489,49.7656 23.5918,49.7656 L36.5862,49.7656 C37.6293,49.7656 38.4839,48.9844 38.578,47.9467 L41.1393,27.2904 C41.7651,26.9521 42.1915,26.2899 42.1915,25.5299 L42.1915,24.0227 C42.1915,23.2548 41.7558,22.5875 41.119,22.2525 Z" id="Fill-5"></path>
            </g>
        </g>
    </g>
</svg>