<?xml version="1.0" encoding="UTF-8"?>
<svg width="26px" height="40px" viewBox="0 0 26 40" version="1.1" xmlns="http://www.w3.org/2000/svg" xmlns:xlink="http://www.w3.org/1999/xlink">
    <!-- Generator: Sketch 51.3 (57544) - http://www.bohemiancoding.com/sketch -->
    <title>2a</title>
    <desc>Created with Sketch.</desc>
    <defs></defs>
    <g id="Desktop" stroke="none" stroke-width="1" fill="none" fill-rule="evenodd">
        <g id="menu-page---text" transform="translate(-588.000000, -132.000000)" fill="#0F3F5A">
            <g id="2a" transform="translate(571.000000, 122.000000)">
                <path d="M36.5861,47.7694 L23.5916,47.7678 L21.0575,18.9299 L39.1204,18.9299 L36.5861,47.7694 Z M21.185,12.4558 C21.1986,12.3785 21.2246,12.3275 21.2439,12.3 L38.8826,12.3 C38.9001,12.325 38.9233,12.3695 38.9377,12.436 L39.0703,13.4228 L21.0801,13.4228 L21.185,12.4558 Z M40.1926,16.9298 C40.1926,16.9298 40.1923,16.9299 40.1914,16.9299 L19.9,16.9299 L19.9,15.4228 L40.1914,15.4228 L40.1926,16.9298 Z M41.119,13.6526 L40.916,12.1405 L40.9086,12.094 C40.7158,11.0377 39.9103,10.3 38.9499,10.3 L21.1767,10.3 C20.1954,10.3 19.366,11.0891 19.2044,12.1764 L19.0479,13.6161 C18.3706,13.9369 17.9,14.6251 17.9,15.4228 L17.9,16.9299 C17.9,17.7215 18.3634,18.4051 19.0321,18.7291 L21.5992,47.9413 C21.689,48.9835 22.5457,49.7694 23.5918,49.7694 L36.5861,49.7694 C37.6323,49.7694 38.4889,48.9835 38.5786,47.9428 L41.1496,18.6848 C41.7698,18.3448 42.1914,17.6858 42.1914,16.9299 L42.1914,15.4228 C42.1914,14.6548 41.7557,13.9876 41.119,13.6526 Z" id="Fill-3"></path>
            </g>
        </g>
    </g>
</svg>