<?xml version="1.0" encoding="utf-8"?>
<!-- Generator: Adobe Illustrator 23.0.0, SVG Export Plug-In . SVG Version: 6.00 Build 0)  -->
<svg version="1.1" id="Layer_1" xmlns="http://www.w3.org/2000/svg" xmlns:xlink="http://www.w3.org/1999/xlink" x="0px" y="0px"
	 viewBox="0 0 126 72" style="enable-background:new 0 0 126 72;" xml:space="preserve">
<style type="text/css">
	.st0{fill:#3D2D07;}
	.st1{fill:#F5B51B;}
</style>
<title>ablue dot</title>
<path class="st0" d="M126,38.6c0,0.5-0.1,0.9-0.2,1.4l0,0c-1.5,7.8-7.5,15.4-18,21.5c-24.5,14-64.4,14-89.1,0
	C8.1,55.4,2.1,47.8,0.6,39.9l0,0c-0.1-0.5-0.2-0.9-0.2-1.4l0,0c-1.2-10,4.8-20.2,18.1-27.8C43.1-3.5,83-3.5,107.6,10.6
	C121.1,18.2,127.3,28.5,126,38.6z"/>
<path class="st1" d="M125.8,40c-1.5,7.8-7.5,15.4-18,21.5c-24.5,14-64.4,14-89.1,0C8.1,55.4,2.1,47.8,0.6,39.9
	C2,32,8,24.5,18.5,18.5C43.1,4.4,83,4.4,107.6,18.4C118.2,24.4,124.3,32.1,125.8,40z"/>
</svg>
