<?xml version="1.0" encoding="utf-8"?>
<!-- Generator: Adobe Illustrator 23.0.0, SVG Export Plug-In . SVG Version: 6.00 Build 0)  -->
<svg version="1.1" id="Layer_1" xmlns="http://www.w3.org/2000/svg" xmlns:xlink="http://www.w3.org/1999/xlink" x="0px" y="0px"
	 viewBox="0 0 228 128" style="enable-background:new 0 0 228 128;" xml:space="preserve">
<style type="text/css">
	.st0{fill:#B71F3C;}
	.st1{fill:#FFFFFF;}
</style>
<g>
	<path class="st0" d="M187.7,128H22.7c-14.4,0-24.5-11.7-22.5-26.1l10.5-75.6c2-14.4,15.3-26.1,29.7-26.1h164.9
		c14.4,0,24.5,11.7,22.5,26.1l-10.5,75.6C215.4,116.3,202.1,128,187.7,128z"/>
	<g>
		<path class="st1" d="M66.8,20.5h5.2l6.6,13l10.2-13h5.2L90,48h-4.8l2.8-19.8l-10.5,13h-0.2l-6.8-12.9L67.7,48h-4.8L66.8,20.5z"/>
		<path class="st1" d="M97.4,36.3l2.2-15.9h4.8l-2.2,15.7c-0.4,2.5,0,4.5,1,5.8c1,1.3,2.6,2,4.8,2c2.2,0,3.9-0.6,5.3-1.9
			c1.4-1.3,2.3-3.2,2.6-5.7l2.2-15.9h4.8L121,36.1c-0.6,4-2.1,7.1-4.5,9.3c-2.3,2.1-5.4,3.1-9.1,3.1c-3.7,0-6.4-1-8.1-3.1
			C97.4,43.3,96.8,40.3,97.4,36.3z"/>
		<path class="st1" d="M128.1,40.5c2.4,2.4,5.2,3.6,8.2,3.6c1.5,0,2.7-0.3,3.7-1c1-0.6,1.5-1.5,1.6-2.5l0-0.1c0.1-1-0.1-1.8-0.8-2.4
			c-0.8-0.6-2.4-1.2-4.8-1.8c-3.1-0.8-5.2-1.7-6.4-2.8c-1.4-1.3-2-3.1-1.6-5.5l0-0.1c0.3-2.4,1.5-4.3,3.4-5.8c2-1.5,4.3-2.2,7.1-2.2
			c3.8,0,7,1.1,9.5,3.5l-3.1,3.7c-2.3-1.9-4.6-2.8-7.1-2.8c-1.4,0-2.5,0.3-3.4,0.9c-0.9,0.6-1.4,1.4-1.5,2.3l0,0.1
			c-0.1,1.1,0.2,1.9,1,2.5c0.8,0.6,2.5,1.2,5,1.8c2.9,0.7,5,1.7,6.2,2.8c1.3,1.3,1.8,3,1.5,5.2l0,0.1c-0.4,2.6-1.5,4.6-3.6,6.1
			c-2,1.5-4.4,2.2-7.4,2.2c-4.4,0-8-1.5-10.9-4.4L128.1,40.5z"/>
		<path class="st1" d="M160.6,25h-8.7l0.6-4.5h22.4l-0.6,4.5h-8.7L162.3,48h-4.9L160.6,25z"/>
		<path class="st1" d="M58.3,69.4H43.4l1.1-7.6h38l-1.1,7.6H66.6l-5.5,39.2h-8.3L58.3,69.4z"/>
		<path class="st1" d="M91.2,61.8h20.9c5.8,0,10.1,1.5,12.9,4.7c2.2,2.7,3,6,2.5,10.1l0,0.1c-1,7.3-5.4,12.1-13.1,14.2l10.2,17.8
			h-9.8l-9.2-16.3H95.2l-2.3,16.3h-8.2L91.2,61.8z M108.3,85c2.9,0,5.4-0.7,7.3-2.1c1.9-1.4,3.1-3.3,3.4-5.7l0-0.1
			c0.7-5.2-2.1-7.8-8.6-7.8h-12L96.2,85H108.3z"/>
		<path class="st1" d="M147.9,90.2l-14.7-28.4h9.8l10.2,20.7l16.1-20.7h9.4L156.2,90l-2.6,18.7h-8.3L147.9,90.2z"/>
	</g>
</g>
</svg>
